inDegrees=no
num_controls=7
num_derivatives=13
num_iterations=80
num_multipliers=7
num_parameters=0
num_slacks=7
num_states=26
objective=0.477234
objective_accelerations=0.045464
objective_balance=0.003680
objective_effort=0.041378
objective_height=0.381059
objective_ligament=0.005653
solver_duration=1096.298980
status=Solve_Succeeded
success=true
DataType=double
version=3
OpenSimVersion=4.5
endheader
time	/jointset/ground_pelvis/pelvis_tilt/value	/jointset/ground_pelvis/pelvis_tx/value	/jointset/ground_pelvis/pelvis_ty/value	/jointset/hip_l/hip_flexion_l/value	/jointset/hip_l/hip_adduction_l/value	/jointset/hip_l/hip_rotation_l/value	/jointset/back/lumbar_extension/value	/jointset/patellofemoral_l/patellar_flexion_l/value	/jointset/knee_l/knee_flexion_l/value	/jointset/knee_l/knee_adduction_l/value	/jointset/knee_l/knee_rotation_l/value	/jointset/ankle_l/ankle_angle_l/value	/jointset/subtalar_l/subtalar_angle_l/value	/jointset/ground_pelvis/pelvis_tilt/speed	/jointset/ground_pelvis/pelvis_tx/speed	/jointset/ground_pelvis/pelvis_ty/speed	/jointset/hip_l/hip_flexion_l/speed	/jointset/hip_l/hip_adduction_l/speed	/jointset/hip_l/hip_rotation_l/speed	/jointset/back/lumbar_extension/speed	/jointset/patellofemoral_l/patellar_flexion_l/speed	/jointset/knee_l/knee_flexion_l/speed	/jointset/knee_l/knee_adduction_l/speed	/jointset/knee_l/knee_rotation_l/speed	/jointset/ankle_l/ankle_angle_l/speed	/jointset/subtalar_l/subtalar_angle_l/speed	/forceset/tau_hip_flexion_l	/forceset/tau_hip_adduction_l	/forceset/tau_hip_rotation_l	/forceset/tau_knee_flexion_l	/forceset/tau_ankle_angle_l	/forceset/tau_subtalar_angle_l	/forceset/tau_lumbar_extension	lambda_cid13_p0	lambda_cid13_p1	lambda_cid13_p2	lambda_cid13_p3	lambda_cid13_p4	lambda_cid13_p5	lambda_cid14_p0	/jointset/ground_pelvis/pelvis_tilt/accel	/jointset/ground_pelvis/pelvis_tx/accel	/jointset/ground_pelvis/pelvis_ty/accel	/jointset/hip_l/hip_flexion_l/accel	/jointset/hip_l/hip_adduction_l/accel	/jointset/hip_l/hip_rotation_l/accel	/jointset/back/lumbar_extension/accel	/jointset/patellofemoral_l/patellar_flexion_l/accel	/jointset/knee_l/knee_flexion_l/accel	/jointset/knee_l/knee_adduction_l/accel	/jointset/knee_l/knee_rotation_l/accel	/jointset/ankle_l/ankle_angle_l/accel	/jointset/subtalar_l/subtalar_angle_l/accel	gamma_cid13_p0	gamma_cid13_p1	gamma_cid13_p2	gamma_cid13_p3	gamma_cid13_p4	gamma_cid13_p5	gamma_cid14_p0
0	-0.03665606244691575	0.0566048026434108	0.9203445553357331	0.3085816938045678	-0.2955929244745764	-0.3005575539234545	-0.3879492264334186	0.2499269421185043	0.2499269421184919	-0.1745325135294074	-0.1735029535018729	-0.0008036623358878681	0.0004734194237473377	0	0	0	0	0	0	0	0	0	0	0	0	0	0.04500952559636636	-0.0161724624219509	-0.01716999640112216	-0.2214105942800622	0.1804300948458493	-0.02824238589637865	0.02906526795621477	13.57048502515567	7.027003323568339	1.695140942035464	5.566115035435953	-634.016162432848	-57.02880192614757	-23.16214303646623	-0.9442600053807531	-1.627863129523106	-0.833530417714041	8.580045632959736	-0.5785418373608561	3.102299115735627	-5.621821522581786	9.091468705454515	9.091468705454373	1.71941369768539	-0.06405797878455011	2.111536063045399	0.09231430752160272	-3.052972176435385e-08	2.159228238188229e-07	-1.780496042424422e-07	1.204485430144186e-07	-3.114273331971632e-07	1.246484303324623e-07	5.180440663630289e-08
0.01	-0.03670046078735486	0.05651927613421458	0.9203026685638603	0.3090094991507372	-0.2956247805117094	-0.3003999503403098	-0.388246852490319	0.2503770012985982	0.2503770012985729	-0.1744543996134403	-0.1735039329555479	-0.0007062588590484786	0.0004721466248722712	-0.008923841555396841	-0.01753565190312871	-0.008463337061058134	0.08612138341769952	-0.006611153328045553	0.03155473219849261	-0.06082464736418158	0.0900479006008031	0.09004790060080108	0.01512051191279648	-0.0003001908551831067	0.01883206915702591	-0.0007280623662870601	0.05256734529366885	-0.02962205089655554	-0.0170474880073182	-0.2215703235592424	0.1676835001783076	-0.01715206673739333	0.01951071936473059	10.05617558797766	2.879103320417939	2.295553696104789	12.26928371650501	-628.1389011698069	-66.84784712632964	-23.16721301157212	-0.8730600714716069	-1.880944641281016	-0.8656950387494643	8.712236325935248	-0.738397629505223	3.187200790086828	-6.507701740231543	8.966850064529714	8.966850064529652	1.333048244402364	-0.02868309631285589	1.671745526334051	-0.2264036182235869	-3.595400097310383e-08	1.489473896689464e-07	7.667562503326641e-08	5.32727854055059e-08	-1.285098069830603e-07	-1.572765476309736e-08	7.073129650935276e-09
0.02	-0.03683542031153635	0.05624548742187217	0.9201735564836874	0.3103153286570239	-0.2957299471919147	-0.2999257713315415	-0.3891917081002462	0.2517286193500929	0.2517286193500952	-0.1742401449170571	-0.1735110510093031	-0.0004399940537781291	0.0004493857804302722	-0.01811223674479797	-0.03765244062923748	-0.01744506166006001	0.1756048320258289	-0.01466212861524142	0.06331508512420783	-0.1294459106041279	0.1803117742870656	0.1803117742870627	0.02722815607861012	-0.001227720007469912	0.03377226568616253	-0.004297609113367275	0.06012516499092255	-0.04307163937117616	-0.01692497961323637	-0.2217300528385206	0.1549369055107318	-0.00606174757843966	0.009956170773236199	6.614283972256938	-1.278994007216895	2.894755952229968	18.86125173841203	-621.1822605147605	-76.57448149852786	-23.18269010091027	-0.9971707321812635	-2.144090494119368	-0.9372079253027903	9.252458671045675	-0.8665062291909377	3.143423261180135	-7.181144697734505	9.134663322546457	9.134663322546547	1.116840148288815	-0.18952563820534	1.333161537467278	-0.4759825686371378	-4.137828018185381e-08	8.197195551906982e-08	3.314008543089751e-07	-1.390297220340683e-08	5.440771923104248e-08	-1.56103739858657e-07	-3.765814733443234e-08
0.03	-0.03706221989398835	0.0557662424341872	0.9199536679649231	0.3125170512012748	-0.2959185315547598	-0.2991362405754578	-0.3908353694809582	0.2539768121063813	0.2539768121063968	-0.1739135318035255	-0.173529193435005	-3.440013443747405e-05	0.0003844386848389996	-0.02714794543296959	-0.05776908973239012	-0.02645599264623104	0.2637587736550142	-0.02286553223224388	0.09436047356937197	-0.1979634688084869	0.2687045987977553	0.2687045987977576	0.03824403268755276	-0.002322536956402291	0.04766451377675276	-0.008384580721739442	0.04925820843955819	-0.03423444387099282	-0.01636273274672258	-0.2181010616997953	0.1594302857722663	-0.01013479480533513	0.0217724929037612	7.730902315935469	0.2596487345673738	2.689169781654206	13.97649006160911	-626.9392938330541	-71.91775263919034	-23.20849660416796	-0.8418252161718739	-1.881335094733835	-0.8715266476821744	8.449713293194788	-0.7689344027115884	3.050459352280916	-6.488626871657259	8.59827300176971	8.598273001770609	1.116442414294291	-0.05766934914298397	1.464960266798739	-0.329022458587656	-7.043193309142089e-08	1.626128578508569e-07	2.943360514701417e-07	5.372799569338439e-08	-1.468440181650985e-07	-1.335282125332065e-07	-2.034135500393408e-08
